<svg id="Unofficial_JavaScript_logo_2" xmlns="http://www.w3.org/2000/svg" width="50" height="50" viewBox="0 0 50 50">
  <rect id="Retângulo_1" data-name="Retângulo 1" width="50" height="50" fill="#f7df1e"/>
  <path id="Caminho_2" data-name="Caminho 2" d="M186.335,302.289a5.125,5.125,0,0,0,4.642,2.858c1.95,0,3.2-.975,3.2-2.321,0-1.614-1.28-2.185-3.426-3.124l-1.176-.5c-3.4-1.447-5.652-3.259-5.652-7.091,0-3.529,2.689-6.216,6.892-6.216a6.956,6.956,0,0,1,6.693,3.768l-3.665,2.353a3.2,3.2,0,0,0-3.029-2.017,2.047,2.047,0,0,0-2.252,2.017c0,1.412.874,1.983,2.893,2.858l1.176.5c4,1.715,6.256,3.463,6.256,7.393,0,4.237-3.328,6.558-7.8,6.558-4.37,0-7.194-2.083-8.576-4.812Zm-16.624.408c.739,1.312,1.412,2.421,3.029,2.421,1.546,0,2.521-.6,2.521-2.957v-16h4.706v16.065c0,4.873-2.857,7.091-7.027,7.091a7.306,7.306,0,0,1-7.06-4.3Z" transform="translate(-152.694 -263.164)"/>
</svg>
