<svg id="next-js-seeklogo.com" xmlns="http://www.w3.org/2000/svg" width="50" height="50" viewBox="0 0 50 50">
  <path id="Caminho_6" data-name="Caminho 6" d="M23.363.013c-.108.01-.45.044-.758.068A25.06,25.06,0,0,0,4.638,10.442,24.744,24.744,0,0,0,.225,21.364,19.132,19.132,0,0,0,0,25a19.132,19.132,0,0,0,.225,3.641,25.1,25.1,0,0,0,17.1,20.2,26.435,26.435,0,0,0,5.279,1.095,46.058,46.058,0,0,0,4.79,0A25.244,25.244,0,0,0,36.4,47.3c.43-.22.513-.279.455-.327-.039-.029-1.872-2.487-4.071-5.459l-4-5.4L23.778,28.7c-2.757-4.076-5.024-7.408-5.044-7.408s-.039,3.289-.049,7.311c-.015,7.042-.02,7.325-.108,7.492a.888.888,0,0,1-.43.445c-.156.078-.293.093-1.031.093h-.846l-.225-.142a.914.914,0,0,1-.327-.357l-.1-.22.01-9.8.015-9.8.152-.191a1.341,1.341,0,0,1,.362-.3c.2-.1.279-.108,1.124-.108,1,0,1.163.039,1.422.323.073.078,2.786,4.164,6.031,9.085s7.683,11.641,9.863,14.939l3.959,6,.2-.132a25.663,25.663,0,0,0,5.137-4.506,24.884,24.884,0,0,0,5.885-12.779A19.132,19.132,0,0,0,50,25a19.132,19.132,0,0,0-.225-3.641,25.1,25.1,0,0,0-17.1-20.2A26.25,26.25,0,0,0,27.468.077c-.469-.049-3.7-.1-4.106-.064ZM33.6,15.133a.986.986,0,0,1,.494.577c.039.127.049,2.844.039,8.967l-.015,8.787-1.549-2.375-1.554-2.375V22.327c0-4.129.02-6.451.049-6.563a1,1,0,0,1,.484-.616c.2-.1.274-.112,1.041-.112C33.309,15.036,33.436,15.045,33.6,15.133Z" transform="translate(0 0)"/>
</svg>
