<svg xmlns="http://www.w3.org/2000/svg" width="50" height="44.487" viewBox="0 0 50 44.487">
  <path id="react_logo_icon_144942" d="M25,19.549a4.459,4.459,0,1,0,4.459,4.459A4.466,4.466,0,0,0,25,19.549ZM12.516,32.87l-.984-.244C4.206,30.77,0,27.63,0,24s4.208-6.77,11.531-8.627l.984-.244.277.977a49.094,49.094,0,0,0,2.841,7.455l.211.439-.211.447A48.511,48.511,0,0,0,12.792,31.9ZM11.077,17.652C5.509,19.214,2.092,21.614,2.092,24s3.419,4.777,8.984,6.348A52,52,0,0,1,13.542,24a51.5,51.5,0,0,1-2.466-6.348ZM37.484,32.87l-.277-.977a48.692,48.692,0,0,0-2.841-7.447L34.156,24l.211-.447A48.511,48.511,0,0,0,37.208,16.1l.277-.969.984.244C45.794,17.23,50,20.37,50,24s-4.208,6.77-11.531,8.627ZM36.458,24a50.818,50.818,0,0,1,2.466,6.348c5.575-1.57,8.984-3.962,8.984-6.348s-3.419-4.777-8.984-6.348A52.6,52.6,0,0,1,36.458,24Zm-25.4-6.356-.277-.977C8.723,9.408,9.35,4.2,12.5,2.385,15.592.6,20.548,2.71,25.748,8.049l.708.725-.708.725A49.153,49.153,0,0,0,20.7,15.683l-.284.4-.489.041a49.394,49.394,0,0,0-7.886,1.27ZM15.014,3.835a2.872,2.872,0,0,0-1.473.358c-2.067,1.2-2.433,5.347-1.009,10.945a52.1,52.1,0,0,1,6.739-1.05,51.294,51.294,0,0,1,4.272-5.3C20.3,5.624,17.219,3.833,15.014,3.833Zm19.98,42.414h0c-2.97,0-6.787-2.23-10.742-6.3l-.708-.725.708-.725A49.153,49.153,0,0,0,29.3,32.316l.277-.4.489-.048a47.918,47.918,0,0,0,7.894-1.27l.984-.244.277.977C41.277,38.591,40.65,43.791,37.5,45.6a4.836,4.836,0,0,1-2.506.642ZM26.456,39.21c3.247,3.166,6.323,4.956,8.528,4.956h.008a2.943,2.943,0,0,0,1.466-.358c2.067-1.2,2.442-5.347,1.009-10.945A51.007,51.007,0,0,1,30.728,33.9a51.385,51.385,0,0,1-4.272,5.306ZM38.941,17.644l-.984-.252a49.989,49.989,0,0,0-7.894-1.27l-.489-.041-.277-.4A49.153,49.153,0,0,0,24.252,9.5l-.708-.725.708-.725C29.452,2.71,34.408.6,37.5,2.385c3.15,1.814,3.777,7.023,1.717,14.283ZM30.73,14.088a51.905,51.905,0,0,1,6.739,1.05c1.433-5.6,1.058-9.75-1.009-10.945s-5.933.634-10,4.6a53.23,53.23,0,0,1,4.272,5.3ZM15.014,46.249a4.872,4.872,0,0,1-2.514-.642c-3.15-1.814-3.777-7.016-1.717-14.273l.277-.977.984.244a48.971,48.971,0,0,0,7.886,1.27l.489.048.277.4A49.153,49.153,0,0,0,25.741,38.5l.708.725-.708.725c-3.947,4.069-7.764,6.3-10.727,6.3ZM12.533,32.863c-1.433,5.6-1.058,9.75,1.009,10.945,2.059,1.172,5.925-.634,10-4.6A51.384,51.384,0,0,1,19.272,33.9a50.809,50.809,0,0,1-6.739-1.042ZM25,34.172c-1.717,0-3.475-.073-5.241-.22l-.489-.041-.284-.406c-.992-1.433-1.937-2.9-2.808-4.419s-1.684-3.059-2.433-4.639L13.534,24l.211-.447c.748-1.578,1.555-3.125,2.433-4.639.862-1.489,1.806-2.978,2.808-4.419l.284-.406.489-.041a62.44,62.44,0,0,1,10.481,0l.489.041.284.406a62.619,62.619,0,0,1,5.241,9.058l.211.447-.211.447A61.9,61.9,0,0,1,31.014,33.5l-.284.406-.489.041C28.483,34.1,26.717,34.172,25,34.172ZM20.427,31.91a59.291,59.291,0,0,0,9.155,0A60.984,60.984,0,0,0,34.155,24a58.64,58.64,0,0,0-4.581-7.911,59.19,59.19,0,0,0-9.147,0A58.284,58.284,0,0,0,15.845,24,60.351,60.351,0,0,0,20.427,31.91Z" transform="translate(0 -1.764)" fill="#61dafb"/>
</svg>
