<svg xmlns="http://www.w3.org/2000/svg" width="50.008" height="48.214" viewBox="0 0 50.008 48.214"><g transform="translate(0.013 -9.2)"><path d="M25.5,50.537c-.332-.078-.654-.176-.977-.273l-.244-.078c-.322-.1-.635-.2-.947-.312l-.127-.049c-.283-.1-.557-.205-.83-.312l-.234-.088c-.3-.117-.6-.244-.9-.371l-.176-.078-.762-.352-.215-.107-.586-.293-.391-.205c-.234-.127-.469-.264-.7-.391l-.234-.127c-.312-.176-.615-.371-.918-.557l-.244-.166c-.225-.137-.439-.283-.654-.43L16.16,46.2c-.2-.146-.41-.293-.615-.449l-.273-.205-.557-.439-.244-.2c-.234-.2-.469-.381-.693-.586l-.078-.059c-.244-.215-.488-.439-.732-.664l-.2-.2-.518-.518-.2-.205c-.215-.225-.43-.449-.645-.684l-.029-.029c-.225-.244-.439-.488-.654-.742l-.176-.205-.469-.576-.176-.215c-.186-.244-.361-.479-.537-.723-4.883-6.65-6.631-15.83-2.734-23.369l-3.458,4.4c-4.424,6.367-3.877,14.648-.5,21.406l.244.479.156.3.1.176.176.312.322.557.186.3.371.586.156.244c.176.264.361.527.547.781l.02.02.088.127c.156.225.322.439.5.654l.186.234.459.566.176.205c.2.244.42.488.635.732l.01.01.02.029c.215.234.43.459.645.684l.2.205.518.508.215.205c.234.225.469.439.713.645l.01.01.127.107c.215.186.43.361.645.547l.264.215.537.42.283.215c.2.146.4.293.6.43L12,52.6l.059.039.586.391.254.166c.3.2.6.381.918.566l.254.146c.225.127.459.264.684.391l.381.2.488.254.117.059.2.1c.254.117.518.244.781.361l.166.068.908.381.225.088c.283.107.566.215.859.322l.107.039c.312.107.635.215.957.312l.234.068a8.684,8.684,0,0,0,.986.273C42.584,60.73,48.805,43.953,48.805,43.953c-5.234,6.8-14.511,8.594-23.3,6.592ZM17.791,33.174a11.239,11.239,0,0,0,1.65,2.06c.234.254.479.5.723.742l.186.186c.244.234.479.459.732.684l.029.029.01.01c.273.244.566.479.859.713l.2.156c.293.225.586.449.9.654l.029.02.41.273.2.127c.215.137.439.273.664.41l.1.049.586.332.2.107.41.215.059.029c.283.137.566.273.859.4l.186.078c.234.1.469.2.7.283l.3.107c.215.078.43.156.645.225l.293.1a8.329,8.329,0,0,0,.928.273c16.523,2.725,20.341-10.01,20.341-10.01C46.55,36.387,39.88,38.74,32.771,36.9c-.312-.088-.625-.176-.937-.273l-.283-.088c-.215-.068-.439-.146-.654-.225l-.3-.109c-.234-.088-.469-.186-.7-.283l-.2-.078c-.293-.127-.576-.264-.859-.4l-.43-.215-.254-.127-.547-.312-.127-.068c-.225-.127-.449-.264-.664-.4l-.2-.137L26.2,33.9c-.3-.215-.6-.43-.889-.654l-.2-.156a19.885,19.885,0,0,1-6.748-9.629A14.94,14.94,0,0,1,19.52,11.479L16.9,15.167c-3.2,4.609-3.027,10.781-.527,15.654a18.118,18.118,0,0,0,1.416,2.353Zm17.421-5.7.41.146.186.059.586.166c9.131,1.768,11.6-4.687,12.265-5.635-2.168,3.125-5.81,3.877-10.283,2.783-.352-.088-.742-.215-1.084-.332A12.372,12.372,0,0,1,36,24.122a13.029,13.029,0,0,1-2.256-1.377c-4-3.037-6.484-8.828-3.877-13.545l-1.416,1.943a9.646,9.646,0,0,0-.762,9.3,13.088,13.088,0,0,0,7.519,7.031Z" fill="#0769ad"/></g></svg>